<?xml version="1.0" encoding="utf-8"?>
<!-- Generator: Adobe Illustrator 16.0.3, SVG Export Plug-In . SVG Version: 6.00 Build 0)  -->
<!DOCTYPE svg PUBLIC "-//W3C//DTD SVG 1.1//EN" "http://www.w3.org/Graphics/SVG/1.1/DTD/svg11.dtd">
<svg version="1.1" xmlns="http://www.w3.org/2000/svg" xmlns:xlink="http://www.w3.org/1999/xlink" x="0px" y="0px" width="800px"
	 height="600px" viewBox="0 0 800 600" enable-background="new 0 0 800 600" xml:space="preserve">
<g id="logo_negro" display="none">
	<polygon display="inline" points="261,153 261,398 310,398 310,205 310,204 310,204 312,204 369.875,394 374.375,398 
		350.875,450.5 390.75,383 444.5,205 446,205 446,287 495,204 495,147 422,147 379.667,290 376,290 333.667,147 261,147 	"/>
	<path display="inline" d="M414.063,363.406l-39.234,66.453c0,0,10.898,26.445,76.898,23.445s41.595-8.694,49.429-6.61
		s30.172-22.347,30.839-50.014s0.003-190.715,0.003-190.715s-0.706-3.628-3.622-3.587c-2.918,0.042-13.375-0.002-13.375-0.002
		l0.084-3.458l22-48.125l-54.209,90.896L483,396.333c0,0-2.938,12.073-12.563,13.636S458.625,411,458.625,411H441
		c0,0-14.541-0.834-14.583-1.917s-9.709-3.041-11.167-11.083S414.063,363.406,414.063,363.406z"/>
</g>
<g id="logo_blanco">
	<g id="Capa_3" display="none">
		<rect x="-105" y="-69" display="inline" width="981" height="722"/>
	</g>
	<polygon fill="#FFFFFF" points="261,153 261,398 310,398 310,205 310,204 310,204 312,204 369.875,394 374.375,398 350.875,450.5 
		390.75,383 444.5,205 446,205 446,287 495,204 495,147 422,147 379.667,290 376,290 333.667,147 261,147 	"/>
	<path fill="#FFFFFF" d="M414.063,363.406l-39.234,66.453c0,0,10.898,26.445,76.898,23.445s41.595-8.694,49.429-6.61
		s30.172-22.347,30.839-50.014s0.003-190.715,0.003-190.715s-0.706-3.628-3.622-3.587c-2.918,0.042-13.375-0.002-13.375-0.002
		l0.084-3.458l22-48.125l-54.209,90.896L483,396.333c0,0-2.938,12.073-12.563,13.636S458.625,411,458.625,411H441
		c0,0-14.541-0.834-14.583-1.917s-9.709-3.041-11.167-11.083S414.063,363.406,414.063,363.406z"/>
</g>
</svg>
