<?xml version="1.0" standalone="no"?>
<!DOCTYPE svg PUBLIC "-//W3C//DTD SVG 20010904//EN"
 "http://www.w3.org/TR/2001/REC-SVG-20010904/DTD/svg10.dtd">
<svg version="1.0" xmlns="http://www.w3.org/2000/svg"
 width="800.000000pt" height="800.000000pt" viewBox="0 0 800.000000 800.000000"
 preserveAspectRatio="xMidYMid meet">
<metadata>
Created by potrace 1.14, written by Peter Selinger 2001-2017
</metadata>
<g transform="translate(0.000000,800.000000) scale(0.100000,-0.100000)"
fill="#000000" stroke="none">
<path d="M2610 4275 l0 -1255 245 0 245 0 0 970 c0 613 4 970 10 970 7 0 38
-83 55 -150 2 -8 18 -60 35 -115 17 -55 33 -107 35 -115 2 -8 13 -44 25 -80
30 -95 70 -227 75 -247 2 -10 10 -38 18 -63 8 -25 30 -92 47 -150 18 -58 41
-133 52 -168 11 -34 21 -68 22 -75 2 -6 6 -19 9 -27 3 -8 17 -53 31 -100 13
-47 41 -137 60 -200 20 -63 39 -125 41 -137 3 -12 10 -35 16 -50 6 -16 13 -37
15 -48 13 -65 57 -179 75 -193 l21 -17 -22 -55 c-12 -30 -39 -92 -61 -138 -21
-45 -39 -85 -39 -89 0 -5 -28 -67 -85 -186 -8 -15 -10 -25 -5 -22 7 4 32 46
86 140 39 70 56 99 81 137 15 24 28 45 28 48 0 3 13 24 28 47 15 24 27 47 27
53 0 5 3 10 8 10 4 0 13 15 21 33 8 17 18 34 22 37 16 11 99 182 99 203 0 13
5 28 12 35 7 7 9 12 5 12 -3 0 1 19 9 43 16 42 30 91 40 137 3 13 10 30 16 37
6 7 8 13 5 13 -3 0 3 25 13 55 10 30 16 55 13 55 -3 0 -1 6 5 13 8 9 22 57 27
87 0 3 3 10 6 15 4 6 10 24 14 40 5 17 10 36 12 43 1 6 4 18 6 25 2 6 16 52
31 102 15 49 30 96 32 105 2 8 24 83 49 165 26 83 86 279 133 438 48 158 90
287 95 287 5 0 8 -30 7 -67 -1 -38 -1 -223 -1 -413 1 -294 3 -341 14 -320 8
14 35 60 60 103 26 43 47 83 47 88 0 5 4 9 9 9 5 0 13 10 17 22 3 12 22 45 40
74 19 29 34 58 34 64 0 5 3 10 8 10 4 0 12 10 18 23 6 12 48 85 93 162 46 77
92 156 103 175 11 19 27 44 34 55 11 15 14 79 14 307 l0 288 -366 -2 -366 -3
-30 -100 c-16 -55 -31 -107 -33 -115 -2 -8 -24 -85 -50 -170 -59 -196 -90
-303 -122 -410 -13 -47 -28 -96 -33 -110 -5 -14 -15 -45 -21 -70 -7 -25 -13
-47 -14 -50 -1 -3 -7 -25 -14 -50 -6 -25 -16 -56 -22 -70 -5 -14 -11 -34 -14
-45 -5 -25 -38 -136 -57 -190 -9 -28 -19 -40 -32 -40 -15 0 -23 14 -38 65 -40
140 -48 168 -73 255 -15 50 -29 97 -32 105 -3 8 -7 22 -9 30 -2 8 -19 67 -39
130 -20 63 -38 124 -40 135 -3 11 -15 51 -27 90 -12 38 -22 75 -23 80 0 6 -11
43 -24 84 -12 41 -24 81 -26 90 -2 9 -22 75 -44 146 -22 72 -44 149 -51 173
l-11 42 -364 0 -365 0 0 -1255z"/>
<path d="M5337 5440 c-3 -14 -13 -34 -22 -45 -18 -23 -185 -304 -185 -311 0
-3 -8 -17 -18 -32 -32 -46 -59 -90 -172 -282 l-110 -185 0 -778 c0 -745 -1
-779 -19 -815 -47 -91 -88 -103 -341 -98 -190 3 -194 4 -263 50 -48 32 -58 66
-63 208 -2 72 -6 133 -9 136 -3 3 -1 10 4 16 5 6 5 20 1 31 -5 15 -21 -5 -81
-105 -40 -69 -81 -138 -90 -155 -9 -16 -37 -64 -62 -105 -74 -122 -157 -268
-157 -275 0 -4 22 -28 48 -54 146 -143 412 -196 842 -168 200 13 286 25 330
44 19 9 41 15 47 14 21 -3 72 28 116 72 39 38 65 73 109 147 26 44 67 173 74
235 9 78 9 1935 0 1963 -8 24 -8 24 -86 27 -79 4 -80 4 -80 19 0 16 30 84 150
340 28 60 49 114 47 120 -2 6 -6 0 -10 -14z"/>
</g>
</svg>
